<svg xmlns="http://www.w3.org/2000/svg" xmlns:xlink="http://www.w3.org/1999/xlink" width="240.154" height="93.54" viewBox="0 0 240.154 93.54"><defs><clipPath id="a"><path d="M0,34.414H240.154v-93.54H0Z" transform="translate(0 59.126)" fill="none"/></clipPath></defs><g transform="translate(0 59.126)"><g transform="translate(0 -59.126)" clip-path="url(#a)"><g transform="translate(0.001 0)"><path d="M19.961,0C8.369.006-4.4,7.094-12.406,13.808l.633.918C.664,6.007,17.928.334,22.688,8.839c2.512,4.488-1.756,13.55-7.762,20.715,1.44-3.166.49-9.236-7.885-9.236-13.93,0-41.336,18.45-41.336,37.322,0,7.567,5.241,12.5,13.882,12.5,23.126,0,54.5-37.912,54.5-56.955C34.085,6.456,30.217,0,19.961,0M-12.5,49.743c-4,0-5.925-3.075-4.923-6.637C-15.346,35.73-2.019,24.8,7.057,24.8c6.626,0,6.123,5.922,2.245,10.975l-2.15,2.378C-.541,45.707-7.682,49.743-12.5,49.743" transform="translate(34.294)" fill="#001e60"/></g><g transform="translate(69.781 16.227)"><path d="M13.114,1.394A10.92,10.92,0,0,0,5.071-2.4H-8.459l-2.294,8.564H2l1.223.13A2.836,2.836,0,0,1,5.038,7.3a3.761,3.761,0,0,1,.226,3.219l-.6,2.254H-3.374c-6.921,0-16.564,4.964-18.711,12.982a10.881,10.881,0,0,0,1.944,10c2.061,2.527,5.948,3.917,10.15,3.917h7.44v0H6.911l7.7-28.754c1.281-4.789-.106-7.831-1.5-9.538m-21.4,29.725a3.969,3.969,0,0,1-3.163-1.326,3.874,3.874,0,0,1-.6-3.49,7.417,7.417,0,0,1,7.007-5.1H2.4L-.254,31.119Z" transform="translate(22.531 2.395)" fill="#001e60"/></g><g transform="translate(177.211 16.226)"><path d="M7.776,0A16.362,16.362,0,0,0-2.05,3.132,13.6,13.6,0,0,0-7.3,11.111c-1.989,7.428,3.848,11.013,8.54,13.553C4.6,26.485,7.5,28.056,6.879,30.385c-.448,1.672-1.174,3.131-5.314,3.131H-11.066l-2.294,8.565H.621c3.753,0,7.211-.78,10-2.919s4.37-5.143,5.347-8.795a9.678,9.678,0,0,0-1.933-9.274c-1.864-2.074-4.547-3.522-6.912-4.8-3.026-1.628-5.879-3.166-5.379-5.032a3.772,3.772,0,0,1,3.868-2.7H17.892L20.19,0Z" transform="translate(13.36)" fill="#001e60"/></g><g transform="translate(103.902 16.226)"><path d="M7.777,0A16.363,16.363,0,0,0-2.051,3.132,13.605,13.605,0,0,0-7.3,11.111c-1.99,7.428,3.849,11.013,8.54,13.553C4.6,26.485,7.5,28.056,6.881,30.385,6.43,32.057,5.7,33.516,1.564,33.516H-11.065l-2.3,8.565H.62c3.756,0,7.213-.78,10-2.919s4.37-5.143,5.347-8.795a9.681,9.681,0,0,0-1.93-9.274c-1.867-2.074-4.55-3.522-6.917-4.8C4.1,14.667,1.243,13.129,1.743,11.263a3.768,3.768,0,0,1,3.868-2.7h12.28L20.189,0Z" transform="translate(13.361)" fill="#001e60"/></g></g><g transform="translate(133.151 -42.9)"><path d="M4.034,0-6.931,42.081h9.26L13.291,0Z" transform="translate(6.931)" fill="#001e60"/></g><g transform="translate(0 -59.126)" clip-path="url(#a)"><g transform="translate(149.639 16.226)"><path d="M10.441,0C-5.869.059-14.4,10.921-17.111,21.04c-3.213,12,3.175,21.041,14.854,21.041H5.574l2.294-8.565H.041c-4.374,0-10.385-3.441-7.964-12.476A17.358,17.358,0,0,1,8.69,8.564h4.969L15.955,0Z" transform="translate(17.939)" fill="#001e60"/></g><g transform="translate(59.119 80.257)"><path d="M.017,2.45l1.351-.076c-.133,1.256.438,1.9,1.579,1.9,1.237,0,2.228-.647,2.228-1.675,0-.8-.381-1.141-1.123-1.37L2.852.872A2.217,2.217,0,0,1,1.2-1.356C1.2-3.087,2.719-4.21,4.831-4.21c1.675,0,2.892.933,2.664,2.683L6.2-1.451A1.364,1.364,0,0,0,4.68-2.992c-1.294,0-2.055.609-2.055,1.5,0,.685.438,1.123,1.237,1.37L4.869.187A2.106,2.106,0,0,1,6.621,2.374c0,2-1.713,3.159-3.806,3.159-1.884,0-3.1-1.161-2.8-3.083" transform="translate(0.03 4.21)" fill="#001e60"/></g><g transform="translate(67.366 80.258)"><path d="M0,2.31C0-1.077,2.112-3.969,5.2-3.969c1.864,0,3.139,1.313,3.139,3.444,0,3.406-2.093,6.3-5.213,6.3C1.256,5.773,0,4.46,0,2.31m6.907-2.7c0-1.484-.78-2.322-1.979-2.322-2.055,0-3.5,2.417-3.5,4.911,0,1.484.761,2.321,1.941,2.321,2.093,0,3.539-2.4,3.539-4.909" transform="translate(0 3.969)" fill="#001e60"/></g><g transform="translate(76.78 80.486)"><path d="M.044,2.177,1.565-3.741H2.973l-1.5,5.8C1.089,3.547,1.755,4.671,3.2,4.671c1.275,0,2.264-1.028,2.683-2.645L7.37-3.741H8.778L6.38,5.546H5.048L5.41,4.138H5.334A2.992,2.992,0,0,1,2.518,5.773C.653,5.773-.452,4.1.044,2.177" transform="translate(0.075 3.741)" fill="#001e60"/></g><g transform="translate(85.346 80.258)"><path d="M.882.084H2.214L1.833,1.492h.078A3.04,3.04,0,0,1,4.746-.144c1.883,0,2.968,1.674,2.473,3.6L5.7,9.37H4.289l1.5-5.8C6.173,2.082,5.507.959,4.042.959,2.767.959,1.776,1.987,1.359,3.6L-.106,9.37h-1.41Z" transform="translate(1.516 0.144)" fill="#001e60"/></g><g transform="translate(95.298 76.452)"><path d="M0,3.669C0,.357,2.074-2.5,5.023-2.5A2.313,2.313,0,0,1,7.478-.536h.076L9.057-6.3h1.41L7.021,7.018H5.689l.419-1.655H6.032A3.236,3.236,0,0,1,3.006,7.246C1.351,7.246,0,5.933,0,3.669M7.04,1.061c0-1.465-.8-2.3-2.036-2.3-2.055,0-3.558,2.226-3.558,4.8,0,1.541.761,2.435,1.941,2.435,2.3,0,3.653-2.664,3.653-4.928" transform="translate(0 6.303)" fill="#001e60"/></g><g transform="translate(108.255 80.258)"><path d="M.882.084H2.214L1.852,1.416h.076A3.091,3.091,0,0,1,4.554-.144a1.927,1.927,0,0,1,2.114,1.56h.076a3.106,3.106,0,0,1,2.74-1.56c1.712,0,2.492,1.332,2.036,3.12L9.864,9.37H8.456L10.074,3.09C10.4,1.816,9.959.959,8.8.959c-1.085,0-1.96.838-2.322,2.228L4.879,9.37H3.471L5.087,3.09C5.412,1.816,4.974.959,3.793.959c-1.084,0-1.96.838-2.321,2.228L-.106,9.37h-1.41Z" transform="translate(1.516 0.144)" fill="#001e60"/></g><g transform="translate(121.671 76.338)"><path d="M.882,1.526H2.29l-2.4,9.287H-1.515Zm.552-3.178a.974.974,0,0,1,.97-.97.975.975,0,0,1,.971.97.96.96,0,0,1-.952.971.991.991,0,0,1-.989-.971" transform="translate(1.515 2.622)" fill="#001e60"/></g><g transform="translate(125.21 80.258)"><path d="M.882.084H2.214L1.833,1.492H1.91A3.04,3.04,0,0,1,4.745-.144c1.884,0,2.968,1.674,2.474,3.6L5.7,9.37H4.288l1.5-5.8C6.172,2.082,5.506.959,4.041.959,2.766.959,1.776,1.987,1.358,3.6L-.107,9.37H-1.515Z" transform="translate(1.515 0.144)" fill="#001e60"/></g><g transform="translate(135.161 76.452)"><path d="M0,3.669C0,.357,2.074-2.5,5.023-2.5A2.313,2.313,0,0,1,7.478-.536h.076L9.057-6.3h1.408L7.021,7.018H5.689l.419-1.655H6.032A3.236,3.236,0,0,1,3.006,7.246C1.351,7.246,0,5.933,0,3.669M7.04,1.061c0-1.465-.8-2.3-2.035-2.3-2.057,0-3.56,2.226-3.56,4.8,0,1.541.761,2.435,1.941,2.435,2.3,0,3.653-2.664,3.653-4.928" transform="translate(0 6.303)" fill="#001e60"/></g></g><g transform="translate(143.19 28.952)"><path d="M.721,0l-1.96,3.92h1.1L2.3,0Z" transform="translate(1.239)" fill="#001e60"/></g><g transform="translate(0 -59.126)" clip-path="url(#a)"><g transform="translate(152.143 80.257)"><path d="M.017,2.45l1.351-.076c-.133,1.256.438,1.9,1.579,1.9,1.237,0,2.228-.647,2.228-1.675,0-.8-.381-1.141-1.123-1.37L2.852.872A2.217,2.217,0,0,1,1.2-1.356C1.2-3.087,2.719-4.21,4.831-4.21c1.675,0,2.892.933,2.664,2.683L6.2-1.451A1.363,1.363,0,0,0,4.679-2.992c-1.294,0-2.055.609-2.055,1.5,0,.685.438,1.123,1.237,1.37L4.869.187A2.106,2.106,0,0,1,6.621,2.374c0,2-1.713,3.159-3.806,3.159-1.883,0-3.1-1.161-2.8-3.083" transform="translate(0.029 4.21)" fill="#001e60"/></g><g transform="translate(160.391 80.258)"><path d="M0,2.31C0-1.077,2.112-3.969,5.2-3.969c1.865,0,3.139,1.313,3.139,3.444,0,3.406-2.093,6.3-5.213,6.3C1.256,5.773,0,4.46,0,2.31m6.907-2.7c0-1.484-.78-2.322-1.979-2.322-2.055,0-3.5,2.417-3.5,4.911,0,1.484.761,2.321,1.941,2.321,2.093,0,3.539-2.4,3.539-4.909" transform="translate(0 3.969)" fill="#001e60"/></g><g transform="translate(169.805 80.486)"><path d="M.044,2.177,1.565-3.741H2.973l-1.5,5.8c-.38,1.484.286,2.607,1.732,2.607,1.275,0,2.264-1.028,2.683-2.645L7.37-3.741H8.778L6.38,5.546H5.048L5.41,4.138H5.334A2.992,2.992,0,0,1,2.518,5.773C.653,5.773-.452,4.1.044,2.177" transform="translate(0.075 3.741)" fill="#001e60"/></g><g transform="translate(178.372 80.258)"><path d="M.882.084H2.214L1.833,1.492H1.91A3.04,3.04,0,0,1,4.745-.144c1.884,0,2.968,1.674,2.474,3.6L5.7,9.37H4.288l1.5-5.8C6.172,2.082,5.506.959,4.041.959,2.766.959,1.776,1.987,1.358,3.6L-.107,9.37H-1.515Z" transform="translate(1.515 0.144)" fill="#001e60"/></g><g transform="translate(188.323 76.452)"><path d="M0,3.669C0,.357,2.074-2.5,5.023-2.5A2.313,2.313,0,0,1,7.478-.536h.076L9.057-6.3h1.408L7.021,7.018H5.689l.419-1.655H6.032A3.236,3.236,0,0,1,3.006,7.246C1.351,7.246,0,5.933,0,3.669M7.04,1.061c0-1.465-.8-2.3-2.035-2.3-2.055,0-3.56,2.226-3.56,4.8,0,1.541.761,2.435,1.941,2.435,2.3,0,3.653-2.664,3.653-4.928" transform="translate(0 6.303)" fill="#001e60"/></g><g transform="translate(201.28 76.452)"><path d="M.7,4.18H.624l-.5,1.96H-1.2L2.241-7.181H3.649L2.222-1.758H2.3A3.245,3.245,0,0,1,5.211-3.375C6.846-3.375,8.16-2,8.16.335c0,3.1-1.751,6.032-4.89,6.032A2.535,2.535,0,0,1,.7,4.18M6.714.411c0-1.693-.838-2.53-2.074-2.53C2.489-2.118,1.2.259,1.2,2.6c0,1.541.875,2.511,2.093,2.511,2.15,0,3.425-2.169,3.425-4.7" transform="translate(1.203 7.181)" fill="#001e60"/></g><g transform="translate(211.86 80.258)"><path d="M0,2.31C0-1.077,2.112-3.969,5.2-3.969c1.865,0,3.139,1.313,3.139,3.444,0,3.406-2.093,6.3-5.213,6.3C1.256,5.773,0,4.46,0,2.31m6.907-2.7c0-1.484-.78-2.322-1.979-2.322-2.055,0-3.5,2.417-3.5,4.911,0,1.484.761,2.321,1.941,2.321,2.093,0,3.539-2.4,3.539-4.909" transform="translate(0 3.969)" fill="#001e60"/></g><g transform="translate(221.374 76.452)"><path d="M0,3.669C0,.357,2.074-2.5,5.023-2.5A2.313,2.313,0,0,1,7.478-.536h.076L9.057-6.3h1.408L7.021,7.018H5.689l.419-1.655H6.032A3.236,3.236,0,0,1,3.006,7.246C1.351,7.246,0,5.933,0,3.669M7.04,1.061c0-1.465-.8-2.3-2.035-2.3-2.057,0-3.56,2.226-3.56,4.8,0,1.541.761,2.435,1.941,2.435,2.3,0,3.653-2.664,3.653-4.928" transform="translate(0 6.303)" fill="#001e60"/></g><g transform="translate(228.87 80.486)"><path d="M0,4.747.324,3.509A3.634,3.634,0,0,0,1.58,3.7c.837,0,1.349-.362,2.169-1.656L4,1.627,3.083-8.155H4.491L5.1-.392h.076L9.742-8.155h1.542L5.025,2.158C3.844,4.1,2.894,4.9,1.332,4.9A5.04,5.04,0,0,1,0,4.747" transform="translate(0 8.155)" fill="#001e60"/></g></g></g></svg>